HIERARCHY
ROOT mixamorig:Hips
{
	OFFSET -0.000008 104.274872 1.554316
	CHANNELS 6 Xposition Yposition Zposition Xrotation Yrotation Zrotation
	JOINT mixamorig:Spine
	{
		OFFSET -0.000005 10.181595 0.131519
		CHANNELS 6 Xposition Yposition Zposition Xrotation Yrotation Zrotation
		JOINT mixamorig:Spine1
		{
			OFFSET -0.000000 9.893959 -1.470707
			CHANNELS 6 Xposition Yposition Zposition Xrotation Yrotation Zrotation
			JOINT mixamorig:Spine2
			{
				OFFSET -0.000000 9.220757 -1.370641
				CHANNELS 6 Xposition Yposition Zposition Xrotation Yrotation Zrotation
				JOINT mixamorig:Neck
				{
					OFFSET 0.000001 16.740417 -2.049036
					CHANNELS 6 Xposition Yposition Zposition Xrotation Yrotation Zrotation
					JOINT mixamorig:Head
					{
						OFFSET 0.000000 9.617874 1.685006
						CHANNELS 6 Xposition Yposition Zposition Xrotation Yrotation Zrotation
						JOINT mixamorig:HeadTop_End
						{
							OFFSET 0.000002 22.037354 7.501101
							CHANNELS 6 Xposition Yposition Zposition Xrotation Yrotation Zrotation
							End Site
							{
								OFFSET 0.000168 2310.654297 -282.823242
							}
						}
					}
				}
				JOINT mixamorig:RightShoulder
				{
					OFFSET -4.569970 11.014908 -2.160885
					CHANNELS 6 Xposition Yposition Zposition Xrotation Yrotation Zrotation
					JOINT mixamorig:RightArm
					{
						OFFSET -10.592851 -0.524811 -2.232101
						CHANNELS 6 Xposition Yposition Zposition Xrotation Yrotation Zrotation
						JOINT mixamorig:RightForeArm
						{
							OFFSET -27.841511 0.000031 -0.000004
							CHANNELS 6 Xposition Yposition Zposition Xrotation Yrotation Zrotation
							JOINT mixamorig:RightHand
							{
								OFFSET -28.328831 -0.000015 0.000015
								CHANNELS 6 Xposition Yposition Zposition Xrotation Yrotation Zrotation
								JOINT mixamorig:RightHandThumb1
								{
									OFFSET -2.464806 -1.573990 2.681852
									CHANNELS 6 Xposition Yposition Zposition Xrotation Yrotation Zrotation
									JOINT mixamorig:RightHandThumb2
									{
										OFFSET -3.215179 -1.872803 1.924282
										CHANNELS 6 Xposition Yposition Zposition Xrotation Yrotation Zrotation
										JOINT mixamorig:RightHandThumb3
										{
											OFFSET -2.654831 -1.527969 1.512609
											CHANNELS 6 Xposition Yposition Zposition Xrotation Yrotation Zrotation
											JOINT mixamorig:RightHandThumb4
											{
												OFFSET -2.018814 -1.152008 1.108052
												CHANNELS 6 Xposition Yposition Zposition Xrotation Yrotation Zrotation
												End Site
												{
													OFFSET -188.809540 -114.533607 132.431396
												}
											}
										}
									}
								}
								JOINT mixamorig:RightHandIndex1
								{
									OFFSET -9.108284 -0.517868 2.259835
									CHANNELS 6 Xposition Yposition Zposition Xrotation Yrotation Zrotation
									JOINT mixamorig:RightHandIndex2
									{
										OFFSET -3.699989 0.000000 0.001215
										CHANNELS 6 Xposition Yposition Zposition Xrotation Yrotation Zrotation
										JOINT mixamorig:RightHandIndex3
										{
											OFFSET -2.850006 0.000031 -0.000522
											CHANNELS 6 Xposition Yposition Zposition Xrotation Yrotation Zrotation
											JOINT mixamorig:RightHandIndex4
											{
												OFFSET -2.772186 -0.000015 -0.000020
												CHANNELS 6 Xposition Yposition Zposition Xrotation Yrotation Zrotation
												End Site
												{
													OFFSET -277.218445 0.000000 -0.050231
												}
											}
										}
									}
								}
								JOINT mixamorig:RightHandMiddle1
								{
									OFFSET -9.532516 -0.000031 -0.000023
									CHANNELS 6 Xposition Yposition Zposition Xrotation Yrotation Zrotation
									JOINT mixamorig:RightHandMiddle2
									{
										OFFSET -3.700005 -0.000015 0.003713
										CHANNELS 6 Xposition Yposition Zposition Xrotation Yrotation Zrotation
										JOINT mixamorig:RightHandMiddle3
										{
											OFFSET -2.949974 0.000015 -0.002054
											CHANNELS 6 Xposition Yposition Zposition Xrotation Yrotation Zrotation
											JOINT mixamorig:RightHandMiddle4
											{
												OFFSET -2.946640 0.000000 -0.000156
												CHANNELS 6 Xposition Yposition Zposition Xrotation Yrotation Zrotation
												End Site
												{
													OFFSET -294.664337 0.000000 -0.113670
												}
											}
										}
									}
								}
								JOINT mixamorig:RightHandRing1
								{
									OFFSET -9.103600 -0.043076 -1.865134
									CHANNELS 6 Xposition Yposition Zposition Xrotation Yrotation Zrotation
									JOINT mixamorig:RightHandRing2
									{
										OFFSET -3.379288 0.000000 -0.001055
										CHANNELS 6 Xposition Yposition Zposition Xrotation Yrotation Zrotation
										JOINT mixamorig:RightHandRing3
										{
											OFFSET -2.889687 -0.000015 0.000379
											CHANNELS 6 Xposition Yposition Zposition Xrotation Yrotation Zrotation
											JOINT mixamorig:RightHandRing4
											{
												OFFSET -2.638809 -0.000015 0.000941
												CHANNELS 6 Xposition Yposition Zposition Xrotation Yrotation Zrotation
												End Site
												{
													OFFSET -263.880371 0.000000 0.516020
												}
											}
										}
									}
								}
								JOINT mixamorig:RightHandPinky1
								{
									OFFSET -8.076683 -0.486710 -3.806280
									CHANNELS 6 Xposition Yposition Zposition Xrotation Yrotation Zrotation
									JOINT mixamorig:RightHandPinky2
									{
										OFFSET -3.600014 -0.000015 -0.003747
										CHANNELS 6 Xposition Yposition Zposition Xrotation Yrotation Zrotation
										JOINT mixamorig:RightHandPinky3
										{
											OFFSET -2.099983 0.000000 -0.005739
											CHANNELS 6 Xposition Yposition Zposition Xrotation Yrotation Zrotation
											JOINT mixamorig:RightHandPinky4
											{
												OFFSET -2.115768 -0.000031 -0.003680
												CHANNELS 6 Xposition Yposition Zposition Xrotation Yrotation Zrotation
												End Site
												{
													OFFSET -211.577087 0.000000 -0.350686
												}
											}
										}
									}
								}
							}
						}
					}
				}
				JOINT mixamorig:LeftShoulder
				{
					OFFSET 4.570447 11.014725 -2.160855
					CHANNELS 6 Xposition Yposition Zposition Xrotation Yrotation Zrotation
					JOINT mixamorig:LeftArm
					{
						OFFSET 10.592371 -0.524597 -2.232119
						CHANNELS 6 Xposition Yposition Zposition Xrotation Yrotation Zrotation
						JOINT mixamorig:LeftForeArm
						{
							OFFSET 27.841532 -0.000031 0.000026
							CHANNELS 6 Xposition Yposition Zposition Xrotation Yrotation Zrotation
							JOINT mixamorig:LeftHand
							{
								OFFSET 28.328846 -0.000061 0.000022
								CHANNELS 6 Xposition Yposition Zposition Xrotation Yrotation Zrotation
								JOINT mixamorig:LeftHandThumb1
								{
									OFFSET 2.466141 -1.576172 2.681732
									CHANNELS 6 Xposition Yposition Zposition Xrotation Yrotation Zrotation
									JOINT mixamorig:LeftHandThumb2
									{
										OFFSET 3.217812 -1.872070 1.916482
										CHANNELS 6 Xposition Yposition Zposition Xrotation Yrotation Zrotation
										JOINT mixamorig:LeftHandThumb3
										{
											OFFSET 2.656029 -1.528778 1.514513
											CHANNELS 6 Xposition Yposition Zposition Xrotation Yrotation Zrotation
											JOINT mixamorig:LeftHandThumb4
											{
												OFFSET 2.020889 -1.154053 1.115139
												CHANNELS 6 Xposition Yposition Zposition Xrotation Yrotation Zrotation
												End Site
												{
													OFFSET 190.885437 -115.081749 130.048782
												}
											}
										}
									}
								}
								JOINT mixamorig:LeftHandIndex1
								{
									OFFSET 9.109314 -0.518021 2.259871
									CHANNELS 6 Xposition Yposition Zposition Xrotation Yrotation Zrotation
									JOINT mixamorig:LeftHandIndex2
									{
										OFFSET 3.699989 0.000000 -0.000322
										CHANNELS 6 Xposition Yposition Zposition Xrotation Yrotation Zrotation
										JOINT mixamorig:LeftHandIndex3
										{
											OFFSET 2.850006 0.000000 0.000352
											CHANNELS 6 Xposition Yposition Zposition Xrotation Yrotation Zrotation
											JOINT mixamorig:LeftHandIndex4
											{
												OFFSET 2.774864 -0.000031 -0.000027
												CHANNELS 6 Xposition Yposition Zposition Xrotation Yrotation Zrotation
												End Site
												{
													OFFSET 277.486267 0.000000 -0.009857
												}
											}
										}
									}
								}
								JOINT mixamorig:LeftHandMiddle1
								{
									OFFSET 9.533394 0.000061 0.000044
									CHANNELS 6 Xposition Yposition Zposition Xrotation Yrotation Zrotation
									JOINT mixamorig:LeftHandMiddle2
									{
										OFFSET 3.699989 -0.000015 -0.000231
										CHANNELS 6 Xposition Yposition Zposition Xrotation Yrotation Zrotation
										JOINT mixamorig:LeftHandMiddle3
										{
											OFFSET 2.949997 -0.000015 -0.000059
											CHANNELS 6 Xposition Yposition Zposition Xrotation Yrotation Zrotation
											JOINT mixamorig:LeftHandMiddle4
											{
												OFFSET 2.952896 0.000031 0.000063
												CHANNELS 6 Xposition Yposition Zposition Xrotation Yrotation Zrotation
												End Site
												{
													OFFSET 295.289337 0.000000 0.022810
												}
											}
										}
									}
								}
								JOINT mixamorig:LeftHandRing1
								{
									OFFSET 9.104523 -0.042999 -1.865074
									CHANNELS 6 Xposition Yposition Zposition Xrotation Yrotation Zrotation
									JOINT mixamorig:LeftHandRing2
									{
										OFFSET 3.150009 -0.000031 0.000043
										CHANNELS 6 Xposition Yposition Zposition Xrotation Yrotation Zrotation
										JOINT mixamorig:LeftHandRing3
										{
											OFFSET 2.949982 -0.000015 0.000040
											CHANNELS 6 Xposition Yposition Zposition Xrotation Yrotation Zrotation
											JOINT mixamorig:LeftHandRing4
											{
												OFFSET 2.644348 0.000000 0.000057
												CHANNELS 6 Xposition Yposition Zposition Xrotation Yrotation Zrotation
												End Site
												{
													OFFSET 264.434631 0.000000 0.012105
												}
											}
										}
									}
								}
								JOINT mixamorig:LeftHandPinky1
								{
									OFFSET 8.077789 -0.486847 -3.806259
									CHANNELS 6 Xposition Yposition Zposition Xrotation Yrotation Zrotation
									JOINT mixamorig:LeftHandPinky2
									{
										OFFSET 3.599953 0.000031 0.014727
										CHANNELS 6 Xposition Yposition Zposition Xrotation Yrotation Zrotation
										JOINT mixamorig:LeftHandPinky3
										{
											OFFSET 2.100021 0.000015 0.007705
											CHANNELS 6 Xposition Yposition Zposition Xrotation Yrotation Zrotation
											JOINT mixamorig:LeftHandPinky4
											{
												OFFSET 2.125504 0.000031 0.007517
												CHANNELS 6 Xposition Yposition Zposition Xrotation Yrotation Zrotation
												End Site
												{
													OFFSET 212.550781 0.000000 0.625752
												}
											}
										}
									}
								}
							}
						}
					}
				}
			}
		}
	}
	JOINT mixamorig:RightUpLeg
	{
		OFFSET -8.207787 -6.751648 -1.599560
		CHANNELS 6 Xposition Yposition Zposition Xrotation Yrotation Zrotation
		JOINT mixamorig:RightLeg
		{
			OFFSET -0.000002 -44.370117 0.345942
			CHANNELS 6 Xposition Yposition Zposition Xrotation Yrotation Zrotation
			JOINT mixamorig:RightFoot
			{
				OFFSET 0.000003 -44.423679 -3.043532
				CHANNELS 6 Xposition Yposition Zposition Xrotation Yrotation Zrotation
				JOINT mixamorig:RightToeBase
				{
					OFFSET -0.000002 -8.728671 10.710558
					CHANNELS 6 Xposition Yposition Zposition Xrotation Yrotation Zrotation
					JOINT mixamorig:RightToe_End
					{
						OFFSET -0.000001 -0.000679 9.278119
						CHANNELS 6 Xposition Yposition Zposition Xrotation Yrotation Zrotation
						End Site
						{
							OFFSET 0.000000 -0.067690 927.812134
						}
					}
				}
			}
		}
	}
	JOINT mixamorig:LeftUpLeg
	{
		OFFSET 8.207793 -6.751686 -1.599556
		CHANNELS 6 Xposition Yposition Zposition Xrotation Yrotation Zrotation
		JOINT mixamorig:LeftLeg
		{
			OFFSET -0.000004 -44.370014 0.346954
			CHANNELS 6 Xposition Yposition Zposition Xrotation Yrotation Zrotation
			JOINT mixamorig:LeftFoot
			{
				OFFSET -0.000001 -44.423672 -3.044401
				CHANNELS 6 Xposition Yposition Zposition Xrotation Yrotation Zrotation
				JOINT mixamorig:LeftToeBase
				{
					OFFSET -0.000002 -8.728669 10.710558
					CHANNELS 6 Xposition Yposition Zposition Xrotation Yrotation Zrotation
					JOINT mixamorig:LeftToe_End
					{
						OFFSET -0.000003 -0.000679 9.278133
						CHANNELS 6 Xposition Yposition Zposition Xrotation Yrotation Zrotation
						End Site
						{
							OFFSET 0.000000 -0.068021 927.813477
						}
					}
				}
			}
		}
	}
}
MOTION
Frames: 3
Frame Time: 0.033333
0.000006 104.270477 1.554256 0.000010 0.000003 -0.000113 -0.000005 10.181587 0.131522 0.000001 -0.000003 0.000084 -0.000000 9.893967 -1.470711 0.000001 0.000000 -0.000000 -0.000000 9.220802 -1.370642 0.000000 -0.000000 -0.000000 0.000001 16.740433 -2.049030 0.000000 -0.000000 -0.000000 0.000000 9.617859 1.685014 0.000000 0.000000 0.000000 0.000002 22.037384 7.501101 0.000000 -0.000000 0.000000 -4.569968 11.014880 -2.160881 0.000008 0.000001 -0.000038 -10.592858 -0.524657 -2.232053 71.999701 3.188353 -2.316752 -27.841549 0.000026 0.000552 116.708986 62.072841 -88.629040 -28.328836 0.000005 0.000025 -0.000319 -0.000045 0.000007 -2.464483 -1.573683 2.682307 -52.846676 -178.738469 -27.072001 -3.215282 -1.872633 1.924678 156.621005 28.808761 -13.300590 -2.654967 -1.527904 1.513084 144.656235 26.773396 -45.068617 -2.018835 -1.152031 1.108061 -0.000006 -0.000002 0.000005 -9.108397 -0.517560 2.260110 93.614525 15.731249 -16.791600 -3.700076 0.000317 0.001483 89.480614 15.143496 -14.984581 -2.850094 0.000359 -0.000284 88.352800 12.643036 -12.286544 -2.772173 0.000002 -0.000016 0.000004 -0.000001 0.000001 -9.532600 0.000277 0.000216 89.473846 13.381593 -13.397694 -3.700083 0.000326 0.003940 88.435712 12.947844 -12.508872 -2.950060 0.000320 -0.001835 89.172607 12.514092 -12.328991 -2.946636 0.000014 -0.000158 -0.000001 0.000001 0.000001 -9.103696 -0.042748 -1.864894 88.163419 14.923857 -14.415671 -3.379313 0.000316 -0.000821 90.447988 9.735261 -9.828806 -2.889756 0.000365 0.000631 93.721663 7.721796 -8.287758 -2.638812 0.000001 0.000937 0.000002 0.000000 0.000001 -8.076755 -0.486381 -3.806060 79.752513 15.856204 -13.146693 -3.600046 0.000276 -0.003545 83.635591 7.197247 -6.127887 -2.099998 0.000322 -0.005516 84.545092 4.303569 -3.716803 -2.115776 -0.000041 -0.003673 -0.000001 0.000003 -0.000003 4.570446 11.014691 -2.160851 -0.000018 0.000010 -0.000021 10.592361 -0.524522 -2.232293 72.378558 8.307066 -6.082343 27.841827 0.000156 -0.000213 105.110068 -59.371071 73.327422 28.328819 -0.000012 0.000019 0.000022 -0.000089 0.000002 2.465933 -1.576118 2.681913 -47.849881 166.901273 10.254826 3.217809 -1.871733 1.916374 157.264368 -29.828949 7.706869 2.656101 -1.528614 1.514464 145.300267 -26.802268 41.109696 2.020895 -1.154097 1.115139 -0.000000 0.000003 0.000004 9.109388 -0.517861 2.259729 83.862593 -16.315765 14.663293 3.700072 0.000133 -0.000456 82.617224 -16.469299 14.511172 2.850056 0.000177 0.000206 81.775744 -13.337554 11.560313 2.774881 -0.000045 -0.000027 -0.000004 -0.000000 -0.000001 9.533468 0.000213 -0.000086 85.416604 -14.744478 13.612772 3.700036 0.000164 -0.000369 86.894725 -13.950713 13.218506 2.950079 0.000169 -0.000188 86.252162 -17.103374 16.037103 2.952859 -0.000013 0.000062 0.000001 0.000000 -0.000003 9.104582 -0.042851 -1.865227 83.339257 -12.923981 11.514380 3.150049 0.000191 -0.000102 90.243943 -12.096029 12.149085 2.950024 0.000184 -0.000077 91.435763 -13.759485 14.107046 2.644310 0.000047 0.000065 0.000001 0.000003 -0.000000 8.077850 -0.486716 -3.806394 76.843187 -14.488429 11.975611 3.599999 0.000182 0.014536 79.837774 -10.747858 9.416308 2.100030 0.000196 0.007536 83.256973 -10.279001 9.561124 2.125515 -0.000015 0.007518 0.000001 0.000002 0.000001 -8.207786 -6.751667 -1.599560 -0.077001 -0.000003 0.000080 -0.000002 -44.370110 0.345938 0.153719 -0.000000 -0.000000 0.000000 -44.423679 -3.043532 -0.076700 0.000000 -0.000002 -0.000006 -8.728667 10.710559 -0.000009 -0.000000 -0.000000 -0.000001 -0.000679 9.278123 0.000000 -0.000000 -0.000000 8.207792 -6.751710 -1.599556 -0.074518 -0.000003 0.000081 -0.000002 -44.370014 0.346960 0.148822 0.000002 0.000000 -0.000001 -44.423664 -3.044403 -0.074314 0.000000 -0.000002 -0.000004 -8.728671 10.710558 0.000007 -0.000000 -0.000000 0.000000 -0.000680 9.278137 -0.000000 0.000000 -0.000001 
0.000006 104.270477 1.554256 0.000010 0.000003 -0.000113 -0.000005 10.181587 0.131522 0.000001 -0.000003 0.000084 -0.000000 9.893967 -1.470711 0.000001 0.000000 -0.000000 -0.000000 9.220802 -1.370642 0.000000 -0.000000 -0.000000 0.000001 16.740433 -2.049030 0.000000 -0.000000 -0.000000 0.000000 9.617859 1.685014 0.000000 0.000000 0.000000 0.000002 22.037384 7.501101 0.000000 -0.000000 0.000000 -4.569968 11.014880 -2.160881 0.000008 0.000001 -0.000038 -10.592884 -0.524705 -2.231986 71.604848 15.746916 -11.392416 -27.841539 0.000022 0.000521 118.177914 66.085420 -94.741513 -28.328831 0.000020 0.000024 -0.000319 -0.000046 0.000008 -2.464503 -1.573645 2.682283 -55.312682 -182.492901 -39.054824 -3.215278 -1.872629 1.924666 153.787173 29.275379 -10.421635 -2.654960 -1.527881 1.513069 143.902510 27.409626 -38.950742 -2.018823 -1.152000 1.108051 -0.000001 0.000000 0.000004 -9.108377 -0.517558 2.260104 93.464035 15.951471 -16.981578 -3.700082 0.000304 0.001479 89.831044 14.865719 -14.798549 -2.850084 0.000364 -0.000290 88.158433 11.815814 -11.443626 -2.772163 -0.000014 -0.000025 0.000000 0.000003 -0.000000 -9.532586 0.000273 0.000225 89.641226 15.288458 -15.334608 -3.700069 0.000317 0.003956 89.419259 13.155414 -12.929046 -2.950067 0.000321 -0.001817 91.102457 11.785463 -12.005535 -2.946633 0.000001 -0.000153 -0.000001 0.000000 0.000000 -9.103690 -0.042755 -1.864896 87.504996 15.951485 -15.237418 -3.379315 0.000323 -0.000827 89.473279 10.135406 -10.060432 -2.889771 0.000347 0.000623 94.879695 7.266491 -7.961105 -2.638824 -0.000016 0.000946 -0.000001 0.000001 -0.000000 -8.076738 -0.486393 -3.806047 79.432033 16.901356 -13.945099 -3.600037 0.000279 -0.003559 82.241522 7.479387 -6.224966 -2.099988 0.000325 -0.005515 85.800884 3.722490 -3.261122 -2.115756 -0.000069 -0.003682 0.000001 0.000003 -0.000005 4.570446 11.014691 -2.160851 -0.000018 0.000010 -0.000021 10.592360 -0.524538 -2.232288 71.907432 11.427566 -8.301486 27.841846 0.000108 -0.000225 106.336271 -64.421791 80.138678 28.328808 -0.000045 0.000023 0.000019 -0.000089 0.000001 2.466114 -1.576161 2.681910 -24.599348 159.545023 -41.495841 3.217830 -1.871766 1.916383 163.015592 -27.353885 19.341591 2.656109 -1.528665 1.514464 141.316792 -26.978911 54.840467 2.020895 -1.154081 1.115144 0.000000 0.000003 0.000004 9.109386 -0.517846 2.259754 86.186291 -18.040051 16.883039 3.700052 0.000159 -0.000476 84.681826 -12.383166 11.306775 2.850043 0.000182 0.000199 83.694563 -9.657274 8.651869 2.774891 -0.000033 -0.000025 0.000001 -0.000000 -0.000002 9.533461 0.000226 -0.000095 87.205396 -17.704330 16.865043 3.700046 0.000189 -0.000375 89.085700 -10.733856 10.562301 2.950047 0.000206 -0.000191 89.002836 -10.522354 10.344616 2.952885 -0.000029 0.000061 0.000000 -0.000003 -0.000002 9.104585 -0.042846 -1.865218 86.622153 -16.887433 15.934717 3.150040 0.000206 -0.000096 91.557593 -10.993493 11.296399 2.950016 0.000194 -0.000090 92.521647 -9.468937 9.894833 2.644319 0.000016 0.000051 -0.000000 -0.000002 -0.000000 8.077839 -0.486723 -3.806393 80.168225 -18.430581 16.057353 3.600007 0.000192 0.014557 82.450533 -15.278382 13.863176 2.100037 0.000197 0.007530 84.654553 -10.862515 10.332594 2.125496 -0.000032 0.007512 0.000000 -0.000002 -0.000000 -8.207786 -6.751667 -1.599560 -0.077001 -0.000003 0.000080 -0.000002 -44.370110 0.345938 0.153719 -0.000000 -0.000000 0.000000 -44.423679 -3.043532 -0.076700 0.000000 -0.000002 -0.000006 -8.728667 10.710559 -0.000009 -0.000000 -0.000000 -0.000001 -0.000679 9.278123 0.000000 -0.000000 -0.000000 8.207792 -6.751710 -1.599556 -0.074518 -0.000003 0.000081 -0.000002 -44.370014 0.346960 0.148822 0.000002 0.000000 -0.000001 -44.423664 -3.044403 -0.074314 0.000000 -0.000002 -0.000004 -8.728671 10.710558 0.000007 -0.000000 -0.000000 0.000000 -0.000680 9.278137 -0.000000 0.000000 -0.000001 
0.000006 104.270477 1.554256 0.000010 0.000003 -0.000113 -0.000005 10.181587 0.131522 0.000001 -0.000003 0.000084 -0.000000 9.893967 -1.470711 0.000001 0.000000 -0.000000 -0.000000 9.220802 -1.370642 0.000000 -0.000000 -0.000000 0.000001 16.740433 -2.049030 0.000000 -0.000000 -0.000000 0.000000 9.617859 1.685014 0.000000 0.000000 0.000000 0.000002 22.037384 7.501101 0.000000 -0.000000 0.000000 -4.569968 11.014880 -2.160881 0.000008 0.000001 -0.000038 -10.592879 -0.524705 -2.231983 71.066438 14.642476 -10.485133 -27.841530 0.000010 0.000541 119.806996 64.914692 -95.315290 -28.328842 0.000021 0.000016 -0.000319 -0.000045 0.000007 -2.464497 -1.573658 2.682282 -54.648511 -179.223576 -34.030550 -3.215288 -1.872625 1.924664 154.407819 29.077393 -11.712459 -2.654958 -1.527897 1.513080 144.266641 27.333515 -38.934510 -2.018830 -1.151992 1.108061 0.000001 0.000006 0.000003 -9.108385 -0.517559 2.260110 93.228954 15.826144 -16.780580 -3.700054 0.000318 0.001481 89.558888 14.123024 -13.992215 -2.850091 0.000370 -0.000301 87.405337 11.137720 -10.646444 -2.772170 -0.000016 -0.000026 -0.000000 0.000001 -0.000000 -9.532587 0.000262 0.000230 89.547209 15.503508 -15.523495 -3.700073 0.000327 0.003944 89.870550 12.710184 -12.586625 -2.950046 0.000327 -0.001836 91.411550 11.525539 -11.803764 -2.946617 0.000000 -0.000156 0.000000 -0.000000 0.000000 -9.103704 -0.042756 -1.864894 87.892329 16.069191 -15.453192 -3.379313 0.000314 -0.000830 89.657714 10.080103 -10.037713 -2.889756 0.000349 0.000628 95.042315 7.368616 -8.095267 -2.638833 -0.000027 0.000944 0.000004 0.000000 -0.000003 -8.076746 -0.486385 -3.806063 79.590350 17.158171 -14.199020 -3.600041 0.000274 -0.003545 83.176725 7.925179 -6.722234 -2.099998 0.000328 -0.005521 86.831246 4.089040 -3.666148 -2.115761 -0.000055 -0.003679 0.000000 0.000000 -0.000003 4.570446 11.014691 -2.160851 -0.000018 0.000010 -0.000021 10.592353 -0.524543 -2.232274 71.233211 13.692555 -9.831604 27.841846 0.000097 -0.000197 106.708564 -66.182341 82.437924 28.328861 -0.000029 0.000027 0.000021 -0.000088 0.000000 2.466275 -1.575958 2.681807 20.729587 178.825486 -125.110214 3.217865 -1.871882 1.916444 165.037724 -17.069637 55.781895 2.656110 -1.528653 1.514496 147.533944 -24.671862 55.803366 2.020907 -1.154074 1.115162 -0.000002 0.000000 -0.000001 9.109398 -0.517853 2.259747 87.803933 -21.464945 20.662818 3.700042 0.000177 -0.000456 89.595006 -14.349063 14.266071 2.850046 0.000218 0.000198 88.607265 -10.851020 10.590666 2.774882 -0.000031 -0.000019 0.000000 -0.000000 0.000002 9.533488 0.000206 -0.000079 85.860805 -20.317528 18.918282 3.700047 0.000193 -0.000373 89.990666 -12.625463 12.620741 2.950051 0.000190 -0.000200 90.889204 -10.160108 10.321066 2.952851 -0.000014 0.000056 0.000000 0.000001 0.000003 9.104609 -0.042838 -1.865213 87.018652 -19.321224 18.360158 3.150058 0.000198 -0.000106 91.250439 -13.068895 13.356578 2.950027 0.000205 -0.000088 91.670960 -8.836196 9.098387 2.644312 0.000044 0.000053 0.000000 0.000002 0.000002 8.077864 -0.486702 -3.806393 82.303861 -20.101277 18.143201 3.599989 0.000172 0.014575 80.931506 -16.224921 14.316456 2.100026 0.000186 0.007534 81.590749 -10.947215 9.867486 2.125516 -0.000014 0.007519 0.000001 0.000003 -0.000002 -8.207786 -6.751667 -1.599560 -0.077001 -0.000003 0.000080 -0.000002 -44.370110 0.345938 0.153719 -0.000000 -0.000000 0.000000 -44.423679 -3.043532 -0.076700 0.000000 -0.000002 -0.000006 -8.728667 10.710559 -0.000009 -0.000000 -0.000000 -0.000001 -0.000679 9.278123 0.000000 -0.000000 -0.000000 8.207792 -6.751710 -1.599556 -0.074518 -0.000003 0.000081 -0.000002 -44.370014 0.346960 0.148822 0.000002 0.000000 -0.000001 -44.423664 -3.044403 -0.074314 0.000000 -0.000002 -0.000004 -8.728671 10.710558 0.000007 -0.000000 -0.000000 0.000000 -0.000680 9.278137 -0.000000 0.000000 -0.000001 
